<svg xmlns="http://www.w3.org/2000/svg" xmlns:xlink="http://www.w3.org/1999/xlink" width="851" zoomAndPan="magnify" viewBox="0 0 638.25 236.249991" height="315" preserveAspectRatio="xMidYMid meet" version="1.0"><defs><g/></defs><g fill="#000000" fill-opacity="1"><g transform="translate(131.957184, 152.889624)"><g><path d="M 15.140625 -43.3125 C 16.910156 -47.03125 19.707031 -50.125 23.53125 -52.59375 C 27.363281 -55.070312 31.921875 -56.3125 37.203125 -56.3125 C 42.222656 -56.3125 46.75 -55.140625 50.78125 -52.796875 C 54.8125 -50.460938 57.960938 -47.144531 60.234375 -42.84375 C 62.503906 -38.539062 63.640625 -33.546875 63.640625 -27.859375 C 63.640625 -22.160156 62.503906 -17.140625 60.234375 -12.796875 C 57.960938 -8.460938 54.8125 -5.109375 50.78125 -2.734375 C 46.75 -0.367188 42.222656 0.8125 37.203125 0.8125 C 31.984375 0.8125 27.441406 -0.421875 23.578125 -2.890625 C 19.722656 -5.367188 16.910156 -8.472656 15.140625 -12.203125 L 15.140625 26.234375 L 8.125 26.234375 L 8.125 -55.5 L 15.140625 -55.5 Z M 56.421875 -27.859375 C 56.421875 -32.460938 55.519531 -36.441406 53.71875 -39.796875 C 51.925781 -43.148438 49.46875 -45.707031 46.34375 -47.46875 C 43.226562 -49.226562 39.707031 -50.109375 35.78125 -50.109375 C 31.988281 -50.109375 28.515625 -49.191406 25.359375 -47.359375 C 22.210938 -45.535156 19.722656 -42.929688 17.890625 -39.546875 C 16.054688 -36.160156 15.140625 -32.226562 15.140625 -27.75 C 15.140625 -23.28125 16.054688 -19.347656 17.890625 -15.953125 C 19.722656 -12.566406 22.210938 -9.957031 25.359375 -8.125 C 28.515625 -6.300781 31.988281 -5.390625 35.78125 -5.390625 C 39.707031 -5.390625 43.226562 -6.285156 46.34375 -8.078125 C 49.46875 -9.878906 51.925781 -12.488281 53.71875 -15.90625 C 55.519531 -19.332031 56.421875 -23.316406 56.421875 -27.859375 Z M 56.421875 -27.859375 "/></g></g></g><g fill="#000000" fill-opacity="1"><g transform="translate(203.216894, 152.889624)"><g><path d="M 15.25 -45.640625 C 16.8125 -49.097656 19.203125 -51.773438 22.421875 -53.671875 C 25.640625 -55.566406 29.585938 -56.515625 34.265625 -56.515625 L 34.265625 -49.09375 L 32.328125 -49.09375 C 27.171875 -49.09375 23.035156 -47.703125 19.921875 -44.921875 C 16.804688 -42.148438 15.25 -37.507812 15.25 -31 L 15.25 0 L 8.125 0 L 8.125 -55.5 L 15.25 -55.5 Z M 15.25 -45.640625 "/></g></g></g><g fill="#000000" fill-opacity="1"><g transform="translate(242.658956, 152.889624)"><g><path d="M 32.421875 0.8125 C 27.203125 0.8125 22.507812 -0.351562 18.34375 -2.6875 C 14.175781 -5.03125 10.890625 -8.351562 8.484375 -12.65625 C 6.078125 -16.957031 4.875 -21.988281 4.875 -27.75 C 4.875 -33.507812 6.09375 -38.539062 8.53125 -42.84375 C 10.976562 -47.144531 14.300781 -50.460938 18.5 -52.796875 C 22.695312 -55.140625 27.40625 -56.3125 32.625 -56.3125 C 37.84375 -56.3125 42.570312 -55.140625 46.8125 -52.796875 C 51.050781 -50.460938 54.375 -47.144531 56.78125 -42.84375 C 59.1875 -38.539062 60.390625 -33.507812 60.390625 -27.75 C 60.390625 -22.0625 59.164062 -17.046875 56.71875 -12.703125 C 54.28125 -8.367188 50.925781 -5.03125 46.65625 -2.6875 C 42.382812 -0.351562 37.640625 0.8125 32.421875 0.8125 Z M 32.421875 -5.390625 C 36.085938 -5.390625 39.476562 -6.21875 42.59375 -7.875 C 45.707031 -9.539062 48.226562 -12.050781 50.15625 -15.40625 C 52.09375 -18.757812 53.0625 -22.875 53.0625 -27.75 C 53.0625 -32.632812 52.113281 -36.753906 50.21875 -40.109375 C 48.320312 -43.460938 45.8125 -45.96875 42.6875 -47.625 C 39.570312 -49.28125 36.1875 -50.109375 32.53125 -50.109375 C 28.875 -50.109375 25.484375 -49.28125 22.359375 -47.625 C 19.242188 -45.96875 16.753906 -43.460938 14.890625 -40.109375 C 13.023438 -36.753906 12.09375 -32.632812 12.09375 -27.75 C 12.09375 -22.875 13.023438 -18.757812 14.890625 -15.40625 C 16.753906 -12.050781 19.226562 -9.539062 22.3125 -7.875 C 25.394531 -6.21875 28.765625 -5.390625 32.421875 -5.390625 Z M 32.421875 -5.390625 "/></g></g></g><g fill="#000000" fill-opacity="1"><g transform="translate(310.564084, 152.889624)"><g><path d="M 29.984375 -49.5 L 17.078125 -49.5 L 17.078125 0 L 9.96875 0 L 9.96875 -49.5 L 2.234375 -49.5 L 2.234375 -55.5 L 9.96875 -55.5 L 9.96875 -59.375 C 9.96875 -65.40625 11.507812 -69.84375 14.59375 -72.6875 C 17.675781 -75.53125 22.671875 -76.953125 29.578125 -76.953125 L 29.578125 -70.859375 C 24.972656 -70.859375 21.738281 -69.972656 19.875 -68.203125 C 18.007812 -66.441406 17.078125 -63.5 17.078125 -59.375 L 17.078125 -55.5 L 29.984375 -55.5 Z M 29.984375 -49.5 "/></g></g></g><g fill="#000000" fill-opacity="1"><g transform="translate(346.244952, 152.889624)"><g><path d="M 11.6875 -65.96875 C 10.269531 -65.96875 9.050781 -66.476562 8.03125 -67.5 C 7.007812 -68.519531 6.5 -69.773438 6.5 -71.265625 C 6.5 -72.753906 7.007812 -73.988281 8.03125 -74.96875 C 9.050781 -75.957031 10.269531 -76.453125 11.6875 -76.453125 C 13.113281 -76.453125 14.332031 -75.957031 15.34375 -74.96875 C 16.363281 -73.988281 16.875 -72.753906 16.875 -71.265625 C 16.875 -69.773438 16.363281 -68.519531 15.34375 -67.5 C 14.332031 -66.476562 13.113281 -65.96875 11.6875 -65.96875 Z M 15.25 -55.5 L 15.25 0 L 8.125 0 L 8.125 -55.5 Z M 15.25 -55.5 "/></g></g></g><g fill="#000000" fill-opacity="1"><g transform="translate(372.167067, 152.889624)"><g><path d="M 17.390625 -49.5 L 17.390625 -15.046875 C 17.390625 -11.660156 18.03125 -9.320312 19.3125 -8.03125 C 20.601562 -6.738281 22.875 -6.09375 26.125 -6.09375 L 32.625 -6.09375 L 32.625 0 L 25 0 C 19.988281 0 16.265625 -1.164062 13.828125 -3.5 C 11.390625 -5.84375 10.171875 -9.691406 10.171875 -15.046875 L 10.171875 -49.5 L 2.4375 -49.5 L 2.4375 -55.5 L 10.171875 -55.5 L 10.171875 -69.4375 L 17.390625 -69.4375 L 17.390625 -55.5 L 32.625 -55.5 L 32.625 -49.5 Z M 17.390625 -49.5 "/></g></g></g><g fill="#000000" fill-opacity="1"><g transform="translate(410.999201, 152.889624)"><g><path d="M 11.6875 -65.96875 C 10.269531 -65.96875 9.050781 -66.476562 8.03125 -67.5 C 7.007812 -68.519531 6.5 -69.773438 6.5 -71.265625 C 6.5 -72.753906 7.007812 -73.988281 8.03125 -74.96875 C 9.050781 -75.957031 10.269531 -76.453125 11.6875 -76.453125 C 13.113281 -76.453125 14.332031 -75.957031 15.34375 -74.96875 C 16.363281 -73.988281 16.875 -72.753906 16.875 -71.265625 C 16.875 -69.773438 16.363281 -68.519531 15.34375 -67.5 C 14.332031 -66.476562 13.113281 -65.96875 11.6875 -65.96875 Z M 15.25 -55.5 L 15.25 0 L 8.125 0 L 8.125 -55.5 Z M 15.25 -55.5 "/></g></g></g><g fill="#000000" fill-opacity="1"><g transform="translate(436.921316, 152.889624)"><g><path d="M 4.875 -27.859375 C 4.875 -33.546875 6.007812 -38.539062 8.28125 -42.84375 C 10.550781 -47.144531 13.703125 -50.460938 17.734375 -52.796875 C 21.765625 -55.140625 26.320312 -56.3125 31.40625 -56.3125 C 36.695312 -56.3125 41.253906 -55.09375 45.078125 -52.65625 C 48.910156 -50.21875 51.675781 -47.101562 53.375 -43.3125 L 53.375 -55.5 L 60.484375 -55.5 L 60.484375 0 L 53.375 0 L 53.375 -12.296875 C 51.601562 -8.503906 48.800781 -5.367188 44.96875 -2.890625 C 41.144531 -0.421875 36.59375 0.8125 31.3125 0.8125 C 26.289062 0.8125 21.765625 -0.367188 17.734375 -2.734375 C 13.703125 -5.109375 10.550781 -8.460938 8.28125 -12.796875 C 6.007812 -17.140625 4.875 -22.160156 4.875 -27.859375 Z M 53.375 -27.75 C 53.375 -32.226562 52.457031 -36.160156 50.625 -39.546875 C 48.789062 -42.929688 46.296875 -45.535156 43.140625 -47.359375 C 39.992188 -49.191406 36.523438 -50.109375 32.734375 -50.109375 C 28.804688 -50.109375 25.28125 -49.226562 22.15625 -47.46875 C 19.039062 -45.707031 16.582031 -43.148438 14.78125 -39.796875 C 12.988281 -36.441406 12.09375 -32.460938 12.09375 -27.859375 C 12.09375 -23.316406 12.988281 -19.332031 14.78125 -15.90625 C 16.582031 -12.488281 19.039062 -9.878906 22.15625 -8.078125 C 25.28125 -6.285156 28.804688 -5.390625 32.734375 -5.390625 C 36.523438 -5.390625 39.992188 -6.300781 43.140625 -8.125 C 46.296875 -9.957031 48.789062 -12.566406 50.625 -15.953125 C 52.457031 -19.347656 53.375 -23.28125 53.375 -27.75 Z M 53.375 -27.75 "/></g></g></g></svg>